<?xml version="1.0" encoding="utf-8"?>
<!-- Generator: Adobe Illustrator 25.1.0, SVG Export Plug-In . SVG Version: 6.00 Build 0)  -->
<svg version="1.1" xmlns="http://www.w3.org/2000/svg" xmlns:xlink="http://www.w3.org/1999/xlink" x="0px" y="0px"
	 viewBox="0 0 1500 1302.5" style="enable-background:new 0 0 1500 1302.5;" xml:space="preserve">
<style type="text/css">
	.st0{display:none;}
	.st1{display:inline;fill:#13181F;}
	.st2{fill:#FFBB61;}
	.st3{fill:none;stroke:#FFBB61;stroke-width:10;stroke-linecap:round;stroke-miterlimit:10;}
	.st4{fill:#13181F;}
	.st5{fill:none;stroke:#13181F;stroke-width:10;stroke-linecap:round;stroke-miterlimit:10;}
	.st6{fill:none;stroke:#FFBB61;stroke-width:10;stroke-linecap:round;stroke-linejoin:round;stroke-miterlimit:10;}
	.st7{display:none;fill:none;stroke:#FFBB61;stroke-width:10;stroke-linecap:round;stroke-miterlimit:10;}
	.st8{display:inline;fill:none;stroke:#FFBB61;stroke-width:10;stroke-linecap:round;stroke-miterlimit:10;}
	.st9{display:inline;}
	.st10{fill:#FFFFFF;}
	.st11{fill:#FFFFFF;stroke:#FFBB61;stroke-width:10;stroke-linecap:round;stroke-miterlimit:10;}
	.st12{fill:none;}
</style>
<g id="Layer_2" class="st0">
</g>
<g id="Layer_1">
	<g>
		<path class="st12" d="M627.2,794.2c0-0.1,0-0.2,0-0.3c-1.2-11-4.1-19.6-13.9-18.4c-1,0.1-2,0.2-2.9,0.3
			c1.6,13.2,3.2,26.4,4.7,39.6c0.7-0.1,1.4-0.2,2.1-0.3C627.7,813.9,628.4,805.1,627.2,794.2z"/>
		<path class="st12" d="M704.6,937.6c0.2,4.6,0.5,6.1,2,6.1c1.5-0.1,1.7-1.6,1.5-6.2c-0.2-4.7-0.3-9.4-0.5-14.1
			c-0.2-4.6-0.5-6.1-2-6.1c-1.5,0.1-1.7,1.6-1.5,6.2C704.2,928.2,704.4,932.9,704.6,937.6z"/>
		<path class="st12" d="M587.9,933.3c-0.4-2.9-1.3-5.3-3.7-4.9c-0.2,0-0.4,0.1-0.5,0.1c0.5,3.6,1,7.2,1.5,10.8c0.2,0,0.3,0,0.5-0.1
			c2.4-0.3,2.6-2.7,2.2-5.7C587.9,933.4,587.9,933.3,587.9,933.3z"/>
		<path class="st12" d="M839.5,928.6c0-2,0-4-0.1-6c-0.1,0-0.1,0-0.2,0c-0.3,1.3-0.7,4.1-1,5.9c-0.6,3.2-1.1,6.5-1.7,9.7
			c1.1,0.1,2.1,0.2,3.2,0.2C839.6,935.2,839.5,931.9,839.5,928.6z"/>
		<path class="st12" d="M556.1,935c-0.1,0-0.1,0-0.2,0c0.1,1.4,0.3,4.2,0.4,6c0.2,3.3,0.4,6.6,0.7,9.9c1-0.2,2.1-0.3,3.1-0.5
			c-0.8-3.2-1.7-6.4-2.5-9.5C557.1,938.9,556.6,936.9,556.1,935z"/>
		<path class="st12" d="M508.5,813.4c0-0.1,0-0.2-0.1-0.3c-2.3-11.1-6.2-19.4-15.8-17.3c-1,0.2-1.9,0.4-2.9,0.6
			c3,13.2,5.9,26.4,8.9,39.6c0.9-0.2,1.9-0.4,2.8-0.6C510.7,833.4,510.8,824.3,508.5,813.4z"/>
		<path class="st12" d="M766.4,922.7c0-0.1,0-0.1,0-0.2c0-3.1-0.5-5.6-2.9-5.6c-0.2,0-0.4,0-0.5,0c0,3.8-0.1,7.5-0.1,11.3
			c0.2,0,0.4,0,0.5,0C765.7,928.2,766.4,925.7,766.4,922.7z"/>
		<path class="st12" d="M565.5,804.6c-2.4-15.2-3.9-23.1-11-21.9c-7.1,1.2-5.9,9.2-3.3,24.3c2.6,15,5.2,30,7.8,44.9
			c2.6,15.1,4.2,23,10.8,21.9c6.6-1.1,5.5-9,3-24.2C570.4,834.6,567.9,819.6,565.5,804.6z"/>
		<path class="st10" d="M526.3,809.7c0-0.1,0-0.2-0.1-0.3c-3.6-18.8-12.1-33.2-34.8-28.3c-7.6,1.7-15.2,3.4-22.7,5.2
			c1,3.9,2,7.9,3,11.8c7.4,30.8,14.8,61.6,22.2,92.4c0.9,4,1.8,7.9,2.7,11.9c5.4-1.3,10.8-2.5,16.2-3.8c-0.9-4-1.9-7.9-2.8-11.9
			c-2.7-12.2-5.5-24.5-8.2-36.7c1.6-0.3,3.1-0.7,4.7-1C527.7,844.6,530,828.5,526.3,809.7z M501.4,835.4c-0.9,0.2-1.9,0.4-2.8,0.6
			c-3-13.2-5.9-26.4-8.9-39.6c1-0.2,1.9-0.4,2.9-0.6c9.6-2.1,13.5,6.2,15.8,17.3c0,0.1,0,0.2,0.1,0.3
			C510.8,824.3,510.7,833.4,501.4,835.4z"/>
		<path class="st10" d="M583.6,805.4c-3.2-22.3-7.3-29.7-13.5-34.5c-4.5-3.4-10.6-4.8-18.2-3.5c-7.6,1.3-12.9,4.6-16.1,9.2
			c-4.3,6.6-5.8,14.8-1.6,37c2.4,12.6,4.8,25.3,7.2,37.9c4.2,22.2,8.4,29.4,14.2,34.1c4.2,3.3,9.8,4.7,16.6,3.5
			c6.8-1.1,11.6-4.3,14.5-8.8c4-6.4,5.6-14.5,2.4-36.8C587.3,830.8,585.5,818.1,583.6,805.4z M569.7,873.8
			c-6.6,1.1-8.1-6.7-10.8-21.9c-2.6-15-5.2-30-7.8-44.9c-2.6-15.1-3.8-23.1,3.3-24.3c7.1-1.2,8.6,6.7,11,21.9c2.4,15,4.8,30,7.2,45
			C575.2,864.8,576.3,872.7,569.7,873.8z"/>
		<path class="st10" d="M616.8,829.5c1.8-0.2,3.5-0.4,5.3-0.6c5.3,16.4,10.4,32.9,15.4,49.4c5.8-0.6,11.5-1.2,17.3-1.7
			c-5.5-18.3-11.3-36.6-17.2-54.9c7.1-6.9,8.9-17.5,7.8-29.3c0-0.1,0-0.2,0-0.3c-1.7-18.8-8.7-33.9-31.6-31.3
			c-7.7,0.9-15.4,1.8-23,2.9c0.6,4,1.2,8,1.8,12.1c4.2,31.4,8.5,62.8,12.7,94.2c0.5,4,1,8.1,1.5,12.1c5.5-0.7,10.9-1.4,16.4-2.1
			c-0.5-4-1.1-8.1-1.6-12.1C619.8,855,618.3,842.2,616.8,829.5z M610.3,775.7c1-0.1,2-0.2,2.9-0.3c9.8-1.1,12.7,7.5,13.9,18.4
			c0,0.1,0,0.2,0,0.3c1.2,11,0.5,19.7-10,21c-0.7,0.1-1.4,0.2-2.1,0.3C613.5,802.2,611.9,788.9,610.3,775.7z"/>
		<path class="st10" d="M701.6,869c4.6-5.9,7.4-14.4,6.5-36.6c0-0.2,0-0.3,0-0.5c-5.7,0.2-11.4,0.5-17.1,0.8
			c0.1,1.3,0.1,2.6,0.2,3.8c0.8,15.4,0.8,23.7-5.9,24.1c-6.6,0.4-7.4-7.7-8.4-22.9c-1-15.2-2-30.3-3.1-45.5
			c-1-15.2-1.4-23.4,5.8-23.8c7.2-0.4,7.8,7.7,8.7,22.9c0,0.5,0.1,1,0.1,1.5c5.9-0.3,11.8-0.6,17.7-0.8c0-0.2,0-0.3,0-0.5
			c-0.8-20.7-4.2-27.9-9.7-33.2c-4.1-3.8-10-5.9-17.7-5.4c-7.7,0.5-13.3,3.2-16.9,7.5c-5,6.1-7.3,14.1-5.4,36.6
			c1.1,12.8,2.1,25.6,3.2,38.5c1.9,22.5,5.2,30.1,10.6,35.4c3.8,3.7,9.2,5.7,16.1,5.3C693.1,875.8,698.2,873.2,701.6,869z"/>
		<path class="st10" d="M766,872.2c0-4.1,0-8.1,0-12.2c0.4-31.7,0.7-63.4,1.1-95c0.1-4.1,0.2-8.1,0.3-12.2
			c-6.1-0.1-12.2-0.1-18.3-0.1c0.1,4.1,0.2,8.1,0.2,12.2c0,12.5,0.1,24.9,0.1,37.4c-5,0-9.9,0.1-14.9,0.1
			c-0.2-12.5-0.4-24.9-0.6-37.4c0-4.1,0-8.1,0-12.2c-6.1,0.1-12.2,0.2-18.3,0.4c0.2,4.1,0.4,8.1,0.6,12.2c1,31.7,2,63.3,2.9,95
			c0.1,4.1,0.1,8.1,0.2,12.2c5.5-0.2,11-0.3,16.5-0.4c-0.1-4.1-0.2-8.1-0.4-12.2c-0.2-14.2-0.5-28.4-0.7-42.6
			c4.9-0.1,9.8-0.1,14.7-0.1c0,14.2,0.1,28.4,0.1,42.6c0,4.1-0.1,8.1-0.1,12.2C755,872.1,760.5,872.1,766,872.2z"/>
		<path class="st10" d="M817.7,859.4c-7.3-0.4-14.6-0.8-21.8-1c1.2-30.9,2.4-61.8,3.5-92.6c0.2-4.1,0.4-8.1,0.7-12.2
			c-6.1-0.2-12.2-0.4-18.3-0.6c0,4.1-0.1,8.1-0.1,12.2c-0.7,31.7-1.5,63.4-2.2,95c-0.2,4.1-0.3,8.1-0.5,12.2
			c12.6,0.3,25.3,0.8,37.9,1.5C817.1,869.1,817.4,864.3,817.7,859.4z"/>
		<path class="st10" d="M850.2,756.5c-6.1-0.5-12.2-0.9-18.3-1.3c-0.2,4.1-0.4,8.1-0.6,12.2c-2,31.6-4.1,63.2-6.1,94.9
			c-0.3,4.1-0.6,8.1-1,12.2c5.5,0.4,11,0.8,16.5,1.2c0.3-4.1,0.5-8.1,0.8-12.2c2.5-31.6,5-63.2,7.5-94.8
			C849.4,764.6,849.8,760.6,850.2,756.5z"/>
		<path class="st10" d="M889.5,870.5c0.1,0,0.2,0,0.3,0c0.8,3.5,1.5,6.9,2.3,10.4c2.5,0.3,5,0.6,7.5,1c2.7-20.3,5.4-40.6,8.2-60.9
			c-8.2-1.1-16.5-2.1-24.8-3.1c-0.6,5-1.1,10-1.7,14.9c2.7,0.3,5.4,0.6,8,0.9c-0.2,2-0.5,4-0.7,6c-2,16.8-3.9,26.6-11.5,25.7
			c-7-0.8-6.1-9.1-4.5-24c1.6-15.1,3.2-30.2,4.8-45.4c1.6-15.1,2.6-23.3,9.8-22.5c7.2,0.8,6.4,9,4.6,24.1c-0.1,0.5-0.1,1-0.2,1.5
			c5.9,0.7,11.8,1.4,17.6,2.2c0-0.2,0-0.3,0.1-0.5c2.7-20.5,0.6-28.2-3.9-34.4c-3.4-4.5-8.9-7.5-16.5-8.4
			c-7.6-0.9-13.7,0.9-17.9,4.5c-5.9,5.1-9.6,12.7-11.6,35.2c-1.2,12.8-2.3,25.6-3.5,38.4c-2,22.5-0.2,30.5,4.3,36.6
			c3.2,4.2,7.8,6.8,13.3,7.4C880.3,881.1,885.3,878,889.5,870.5z"/>
		<path class="st10" d="M959.3,879.1c5.9-31.1,11.7-62.3,17.6-93.4c0.8-4,1.6-8,2.4-12c-6-1.1-12.1-2.2-18.1-3.3
			c-0.6,4-1.3,8-1.9,12c-2.1,12.3-4.3,24.6-6.4,36.9c-4.9-0.8-9.8-1.7-14.7-2.5c2-12.3,3.9-24.6,5.9-37c0.7-4,1.4-8,2.1-12
			c-6-1-12.1-1.9-18.2-2.8c-0.5,4-1,8.1-1.6,12.1c-4.5,31.4-9.1,62.7-13.6,94.1c-0.6,4-1.3,8-1.9,12c5.5,0.8,10.9,1.6,16.4,2.5
			c0.6-4,1.2-8,1.8-12.1c2.2-14,4.5-28,6.7-42.1c4.8,0.8,9.7,1.6,14.5,2.4c-2.4,14-4.8,28-7.3,42c-0.7,4-1.5,8-2.2,12
			c5.4,0.9,10.9,1.9,16.3,2.9C957.9,887.1,958.6,883.1,959.3,879.1z"/>
		<path class="st10" d="M998,887.1c6.8-30.1,13.6-60.3,20.4-90.4c5.4,1.2,10.9,2.5,16.3,3.8c1.1-4.7,2.3-9.4,3.4-14.1
			c-16.8-4-33.7-7.7-50.7-11c-0.9,4.8-1.9,9.5-2.8,14.3c5.5,1.1,10.9,2.2,16.4,3.3c-6.4,30.2-12.7,60.5-19.1,90.7
			c-0.9,4-1.8,7.9-2.7,11.9c5.4,1.1,10.8,2.3,16.2,3.5C996.4,895.1,997.2,891.1,998,887.1z"/>
		<path class="st10" d="M563.6,963.4c2.1-0.3,4.2-0.7,6.3-1c-3.5-12-7.1-24-10.7-35.9c-3,0.5-6,1-9,1.5c0.5,12.5,1,25,1.6,37.5
			c2.1-0.4,4.2-0.7,6.3-1.1c-0.2-2.5-0.4-5-0.6-7.5c1.4-0.2,2.8-0.5,4.3-0.7C562.3,958.5,562.9,960.9,563.6,963.4z M557,950.9
			c-0.2-3.3-0.5-6.6-0.7-9.9c-0.1-1.8-0.3-4.6-0.4-6c0.1,0,0.1,0,0.2,0c0.5,1.9,1,3.9,1.5,5.8c0.9,3.2,1.7,6.4,2.5,9.5
			C559.1,950.5,558,950.7,557,950.9z"/>
		<path class="st10" d="M594.4,932.6c0,0,0-0.1,0-0.1c-0.8-6-3.3-10.8-10.7-9.8c-2.5,0.3-5,0.7-7.4,1.1c0.2,1.2,0.4,2.5,0.6,3.7
			c1.4,9.8,2.9,19.5,4.3,29.3c0.2,1.3,0.3,2.5,0.5,3.8c2.2-0.3,4.4-0.6,6.5-0.9c-0.2-1.3-0.4-2.5-0.6-3.8c-0.5-3.8-1.1-7.5-1.6-11.3
			c0.3,0,0.6-0.1,0.9-0.1c1.6,4.9,3.2,9.8,4.7,14.7c2.2-0.3,4.5-0.6,6.7-0.9c-1.9-5.5-3.8-11-5.8-16.5
			C594.5,939.4,594.8,936.2,594.4,932.6z M585.7,939.1c-0.2,0-0.3,0-0.5,0.1c-0.5-3.6-1-7.2-1.5-10.8c0.2,0,0.4-0.1,0.5-0.1
			c2.3-0.3,3.3,2,3.7,4.9c0,0.1,0,0.1,0,0.2C588.3,936.4,588,938.7,585.7,939.1z"/>
		<path class="st10" d="M619.7,918.2c-5.3,0.6-10.5,1.2-15.8,1.8c0.2,1.9,0.5,3.8,0.7,5.7c1.5-0.2,3.1-0.4,4.6-0.6
			c1.1,9.2,2.2,18.3,3.3,27.5c0.1,1.3,0.3,2.5,0.4,3.8c2.2-0.3,4.3-0.5,6.5-0.8c-0.2-1.3-0.3-2.5-0.5-3.8c-1-9.2-2.1-18.3-3.1-27.5
			c1.5-0.2,3-0.3,4.5-0.5C620.1,922,619.9,920.1,619.7,918.2z"/>
		<path class="st10" d="M642.7,951c1.9-0.2,3.8-0.3,5.7-0.5c-0.3-3.5-0.6-7.1-0.9-10.6c2.6-0.2,5.2-0.4,7.7-0.7
			c-0.1-1.8-0.3-3.6-0.4-5.4c-2.6,0.2-5.2,0.4-7.8,0.7c-0.3-3.6-0.6-7.2-0.9-10.8c-1.9,0.2-3.9,0.3-5.8,0.5c0.3,3.6,0.7,7.2,1,10.8
			c-2.6,0.2-5.3,0.5-7.9,0.8c0.2,1.8,0.4,3.6,0.5,5.4c2.6-0.3,5.2-0.5,7.8-0.8C642.1,944,642.4,947.5,642.7,951z"/>
		<path class="st10" d="M678.6,946.7c0.1,1.3,0.1,2.5,0.2,3.8c2.2-0.1,4.4-0.3,6.6-0.4c-0.1-1.3-0.2-2.5-0.3-3.8
			c-0.5-9.8-1.1-19.7-1.6-29.5c-0.1-1.3-0.1-2.5-0.2-3.8c-2.3,0.1-4.5,0.3-6.8,0.4c0.1,1.3,0.2,2.5,0.3,3.8c0.2,3.7,0.4,7.3,0.7,11
			c-1.2,0.1-2.4,0.1-3.6,0.2c-0.2-3.7-0.5-7.3-0.7-11c-0.1-1.3-0.1-2.5-0.2-3.8c-2.3,0.1-4.5,0.3-6.8,0.5c0.1,1.3,0.2,2.5,0.3,3.8
			c0.7,9.8,1.4,19.7,2.1,29.5c0.1,1.3,0.1,2.5,0.2,3.8c2.2-0.2,4.4-0.3,6.6-0.4c-0.1-1.3-0.2-2.5-0.3-3.8c-0.3-4.2-0.5-8.4-0.8-12.6
			c1.2-0.1,2.4-0.2,3.6-0.2C678.1,938.3,678.3,942.5,678.6,946.7z"/>
		<path class="st10" d="M697.8,936c0.3,7.3,1.4,9.9,3.1,11.7c1.3,1.4,3.3,2.1,5.8,2c2.6-0.1,4.5-0.9,5.7-2.4c1.6-2,2.4-4.6,2.2-11.9
			c-0.1-3.4-0.2-6.9-0.3-10.3c-0.2-7.3-1.3-9.9-3-11.8c-1.3-1.4-3.4-2.1-6-2c-2.6,0.1-4.7,1-5.8,2.4c-1.6,2-2.4,4.6-2.1,12
			C697.5,929.1,697.7,932.6,697.8,936z M705.6,917.3c1.5-0.1,1.8,1.5,2,6.1c0.2,4.7,0.3,9.4,0.5,14.1c0.2,4.6,0,6.1-1.5,6.2
			c-1.5,0.1-1.8-1.5-2-6.1c-0.2-4.7-0.4-9.4-0.5-14.1C703.9,919,704.1,917.4,705.6,917.3z"/>
		<path class="st10" d="M735.3,943c-1.6,0-2.3-2.1-2.7-5.5c-2,0.1-3.9,0.2-5.9,0.4c0.4,7.4,3.6,11.2,8.7,11.2
			c4.9-0.1,8.5-3.6,8.5-9.7c0-3.8-1.5-7.5-4.7-10.7c-0.9-1-1.9-2-2.8-2.9c-2-2.1-3-3.8-3.1-5.8c0-2,0.7-3.1,1.8-3.1
			c1.4,0,2,1.8,2.3,4.7c2-0.1,4-0.2,6-0.3c-0.4-6.9-3.3-10.4-8.2-10.4c-5.1,0-8.5,3.7-8.4,10.1c0.1,3.2,1.1,6.8,4.3,10
			c1,1,1.9,1.9,2.8,2.9c2,2.1,3.2,3.8,3.2,6.2C737.3,942,736.5,943,735.3,943z"/>
		<path class="st10" d="M763.7,933.8c7.2,0.1,9-4.8,9.2-11c0,0,0-0.1,0-0.1c0.1-6.2-1.6-11.3-9.2-11.4c-2.5,0-4.9-0.1-7.4-0.1
			c0,1.3,0,2.5,0,3.8c-0.1,9.9-0.1,19.7-0.2,29.6c0,1.3-0.1,2.5-0.1,3.8c2.2,0,4.4,0,6.6,0.1c0-1.3,0-2.5,0-3.8
			c0-3.6,0.1-7.2,0.1-10.9C763.1,933.8,763.4,933.8,763.7,933.8z M763,916.9c0.2,0,0.4,0,0.5,0c2.4,0,2.9,2.5,2.9,5.6
			c0,0.1,0,0.1,0,0.2c0,3-0.7,5.5-3,5.5c-0.2,0-0.4,0-0.5,0C762.9,924.4,763,920.6,763,916.9z"/>
		<path class="st10" d="M784.6,945.1c-0.1,1.3-0.1,2.5-0.2,3.8c2.2,0.1,4.4,0.1,6.6,0.2c0-1.3,0.1-2.5,0.1-3.8
			c0.4-9.9,0.7-19.7,1.1-29.6c0.1-1.3,0.1-2.5,0.2-3.8c-2.3-0.1-4.5-0.2-6.8-0.2c0,1.3,0,2.5-0.1,3.8
			C785.2,925.4,784.9,935.2,784.6,945.1z"/>
		<path class="st10" d="M807.7,949.9c2.2,0.1,4.3,0.2,6.5,0.4c0.1-1.3,0.1-2.5,0.2-3.8c0.5-9.2,1.1-18.4,1.6-27.6
			c1.5,0.1,3,0.2,4.6,0.3c0.1-1.9,0.2-3.8,0.3-5.7c-5.3-0.3-10.6-0.6-15.8-0.9c-0.1,1.9-0.2,3.8-0.3,5.7c1.5,0.1,3.1,0.1,4.6,0.2
			c-0.5,9.2-1,18.4-1.4,27.6C807.9,947.3,807.8,948.6,807.7,949.9z"/>
		<path class="st10" d="M827.9,951.1c2.1,0.1,4.2,0.3,6.3,0.5c0.4-2.5,0.8-5,1.2-7.5c1.4,0.1,2.9,0.2,4.3,0.3c0,2.5,0.1,5,0.1,7.6
			c2.1,0.2,4.2,0.3,6.3,0.5c-0.5-12.5-1.1-25-1.8-37.5c-3-0.2-6.1-0.5-9.1-0.7C832.8,926.6,830.3,938.8,827.9,951.1z M838.2,928.5
			c0.3-1.8,0.8-4.6,1-5.9c0.1,0,0.1,0,0.2,0c0,2,0,4,0.1,6c0.1,3.3,0.1,6.6,0.2,9.9c-1.1-0.1-2.1-0.2-3.2-0.2
			C837.1,935,837.6,931.8,838.2,928.5z"/>
		<path class="st10" d="M867.9,921c0.1-1.3,0.3-2.5,0.4-3.8c-2.3-0.2-4.5-0.5-6.8-0.7c-0.1,1.3-0.2,2.5-0.3,3.8
			c-0.9,9.8-1.9,19.6-2.8,29.5c-0.1,1.3-0.3,2.5-0.4,3.8c4.1,0.4,8.2,0.8,12.3,1.2c0.2-1.9,0.4-3.8,0.6-5.7
			c-1.9-0.2-3.9-0.4-5.8-0.6C866,939.3,867,930.2,867.9,921z"/>
		<path class="st10" d="M889.5,953.2c1.2-9.8,2.4-19.6,3.6-29.4c0.2-1.3,0.3-2.5,0.5-3.8c-2.3-0.3-4.5-0.5-6.8-0.8
			c-0.1,1.3-0.3,2.5-0.4,3.8c-1.2,9.8-2.3,19.6-3.5,29.4c-0.2,1.3-0.3,2.5-0.5,3.8c2.2,0.3,4.4,0.5,6.5,0.8
			C889.2,955.7,889.3,954.5,889.5,953.2z"/>
		<path class="st10" d="M905.7,959.1c2.2,0.3,4.3,0.6,6.5,0.9c0.2-1.3,0.3-2.5,0.5-3.8c1.3-9.1,2.6-18.3,3.9-27.4
			c1.5,0.2,3,0.4,4.5,0.7c0.3-1.9,0.6-3.8,0.8-5.7c-5.2-0.8-10.5-1.5-15.7-2.2c-0.3,1.9-0.5,3.8-0.8,5.7c1.5,0.2,3.1,0.4,4.6,0.6
			c-1.3,9.1-2.5,18.3-3.8,27.4C906.1,956.6,905.9,957.9,905.7,959.1z"/>
		<path class="st10" d="M933.2,963.3c2.2,0.4,4.3,0.7,6.5,1.1c0.2-1.3,0.4-2.5,0.6-3.8c0.6-3.6,1.2-7.3,1.8-10.9
			c3.2-7,6.5-14,9.9-20.9c-2.2-0.4-4.3-0.7-6.5-1.1c-1.7,4.3-3.4,8.6-5.1,12.9c-0.1,0-0.1,0-0.2,0c-0.2-4.6-0.4-9.2-0.6-13.8
			c-2.2-0.4-4.4-0.7-6.6-1.1c0.9,7.7,1.7,15.3,2.5,23c-0.6,3.6-1.2,7.3-1.8,10.9C933.6,960.8,933.4,962,933.2,963.3z"/>
		<path class="st10" d="M749.2,457.6c0.3,0,0.6-0.1,0.8-0.1c0.3,0.1,0.6,0.1,0.9,0.1c57.8,2.1,88.9,15.5,98.7,27.3
			c3.8,4.6,5.3,9.6,4.5,15.2c-0.4,2.7,1.5,5.3,4.2,5.7c0.2,0,0.5,0.1,0.7,0.1c2.4,0,4.6-1.8,4.9-4.3c1.2-8.5-1-16.2-6.7-23.1
			c-21.5-25.8-86.6-30.2-106-30.9c-0.4,0-0.8,0-1.2,0.1c-0.4-0.1-0.8-0.1-1.2-0.1c-19.4,0.7-84.5,5-106,30.9
			c-5.7,6.8-7.9,14.6-6.7,23.1c0.4,2.5,2.5,4.3,4.9,4.3c0.2,0,0.5,0,0.7-0.1c2.7-0.4,4.6-2.9,4.2-5.7c-0.8-5.6,0.6-10.6,4.5-15.2
			C660.3,473,691.4,459.6,749.2,457.6z"/>
		<path class="st10" d="M350.2,800.2c0.3,0,0.6,0,0.9-0.1c2.7-0.5,4.5-3.1,4-5.8c-2.4-13.1-1.3-38.7,9.8-68.1
			c8.1-21.5,24-50.9,53.5-69c65.1-40,136.5-69.9,231.6-97l3.8-1.1l-0.2-4c-0.2-3.1-0.3-5.4-0.4-6.9c-0.1-1.8-0.5-6.7-5.4-6.5
			c-1.8,0.1-4.8,1-4.9,6.3c0,0.8,0,2,0,3.1c0,0.2,0,0.5,0,0.7c-93.8,27-164.9,56.9-229.8,96.8C356.3,683.7,339,762,345.3,796.1
			C345.7,798.5,347.8,800.2,350.2,800.2z"/>
		<path class="st10" d="M692.7,553.5c2.8,0,5-2.2,5-5v-52.2c0-2.8-2.2-5-5-5s-5,2.2-5,5v52.2C687.7,551.2,689.9,553.5,692.7,553.5z"
			/>
		<path class="st10" d="M716.3,488.2v57.3c0,2.8,2.2,5,5,5s5-2.2,5-5v-57.3c0-2.8-2.2-5-5-5S716.3,485.5,716.3,488.2z"/>
		<path class="st10" d="M745,485.3V545c0,2.8,2.2,5,5,5s5-2.2,5-5v-59.7c0-2.8-2.2-5-5-5S745,482.5,745,485.3z"/>
		<path class="st10" d="M787.6,1074.3c-0.7-0.1-16.8-3.5-37.1-3.5c-20.4,0-35.8,3.3-36.5,3.5c-2.7,0.6-4.4,3.3-3.8,6
			c0.5,2.3,2.6,3.9,4.9,3.9c0.4,0,0.7,0,1.1-0.1c0.1,0,15-3.3,34.3-3.3c19.3,0,34.9,3.2,35.1,3.3c2.7,0.6,5.4-1.2,5.9-3.9
			C792,1077.5,790.3,1074.8,787.6,1074.3z"/>
		<path class="st10" d="M1118.1,778.2c1.7,0,3.3-0.8,4.3-2.4c1.4-2.4,0.7-5.4-1.7-6.9c-36-22-144.1-73.2-370.7-73.2
			s-334.8,51.2-370.7,73.2c-2.4,1.4-3.1,4.5-1.7,6.9c0.9,1.5,2.6,2.4,4.3,2.4c0.9,0,1.8-0.2,2.6-0.7
			c35.2-21.6,141.4-71.8,365.5-71.8s330.3,50.2,365.5,71.8C1116.3,777.9,1117.2,778.2,1118.1,778.2z"/>
		<path class="st10" d="M492.3,644.8c0.6,2.2,2.6,3.6,4.8,3.6c0.5,0,0.9-0.1,1.4-0.2c80.9-23,163.2-34.2,251.5-34.2c0,0,0,0,0,0
			c88.4,0,170.6,11.2,251.5,34.2c0.5,0.1,0.9,0.2,1.4,0.2c2.2,0,4.2-1.4,4.8-3.6c0.8-2.7-0.8-5.4-3.4-6.2
			C922.5,615.3,839.3,604,750,604c0,0,0,0,0,0c-89.3,0-172.5,11.3-254.3,34.6C493.1,639.3,491.5,642.1,492.3,644.8z"/>
		<path class="st10" d="M857.1,551.1c0-1.1,0-2.3,0-3.1c-0.1-5.3-3.1-6.2-4.9-6.3c-4.9-0.2-5.3,4.7-5.4,6.5
			c-0.1,1.5-0.3,3.8-0.4,6.9l-0.2,4l3.8,1.1c95.1,27,166.5,57,231.6,97c29.5,18.1,45.3,47.5,53.5,69c11.1,29.3,12.2,55,9.8,68.1
			c-0.5,2.7,1.3,5.3,4,5.8c0.3,0.1,0.6,0.1,0.9,0.1c2.4,0,4.5-1.7,4.9-4.1c6.3-34.1-11-112.4-67.9-147.4
			c-64.9-39.9-135.9-69.9-229.8-96.8C857.1,551.6,857.1,551.4,857.1,551.1z"/>
		<path class="st10" d="M802.3,496.3v52.2c0,2.8,2.2,5,5,5s5-2.2,5-5v-52.2c0-2.8-2.2-5-5-5S802.3,493.5,802.3,496.3z"/>
		<path class="st10" d="M773.7,488.2v57.3c0,2.8,2.2,5,5,5s5-2.2,5-5v-57.3c0-2.8-2.2-5-5-5S773.7,485.5,773.7,488.2z"/>
		<path class="st10" d="M420.6,865.3c-0.7-2.7-3.4-4.3-6.1-3.6l-211.6,55c-2.7,0.7-4.3,3.4-3.6,6.1c0.6,2.3,2.6,3.7,4.8,3.7
			c0.4,0,0.8-0.1,1.3-0.2l211.6-55C419.7,870.7,421.3,868,420.6,865.3z"/>
		<path class="st10" d="M459.2,920.1c-1.4-2.4-4.5-3.2-6.8-1.8l-117.7,69.3c-2.4,1.4-3.2,4.5-1.8,6.8c0.9,1.6,2.6,2.5,4.3,2.5
			c0.9,0,1.7-0.2,2.5-0.7l117.7-69.3C459.8,925.5,460.6,922.4,459.2,920.1z"/>
		<path class="st10" d="M337.2,938.3c0.6,0,1.2-0.1,1.8-0.3l96.9-38c2.6-1,3.8-3.9,2.8-6.5c-1-2.6-3.9-3.8-6.5-2.8l-96.9,38
			c-2.6,1-3.8,3.9-2.8,6.5C333.3,937.1,335.2,938.3,337.2,938.3z"/>
		<path class="st10" d="M399.9,831.9c-0.5-2.7-3-4.6-5.8-4.1L74.4,881.4c-2.7,0.5-4.6,3-4.1,5.8c0.4,2.4,2.5,4.2,4.9,4.2
			c0.3,0,0.6,0,0.8-0.1l319.7-53.7C398.5,837.2,400.3,834.6,399.9,831.9z"/>
		<path class="st10" d="M512.1,971.5c-1.8-2.1-4.9-2.4-7-0.6l-89.1,75.8c-2.1,1.8-2.4,4.9-0.6,7c1,1.2,2.4,1.8,3.8,1.8
			c1.1,0,2.3-0.4,3.2-1.2l89.1-75.8C513.6,976.7,513.9,973.6,512.1,971.5z"/>
		<path class="st10" d="M418,996.1l64.3-40.6c2.3-1.5,3-4.6,1.6-6.9c-1.5-2.3-4.6-3-6.9-1.6l-64.3,40.6c-2.3,1.5-3,4.6-1.6,6.9
			c1,1.5,2.6,2.3,4.2,2.3C416.3,996.9,417.2,996.7,418,996.1z"/>
		<path class="st10" d="M543.2,992.1c-1.9-2-5.1-2.1-7.1-0.2l-53.9,51.1c-2,1.9-2.1,5.1-0.2,7.1c1,1,2.3,1.6,3.6,1.6
			c1.2,0,2.5-0.5,3.4-1.4l53.9-51.1C545,997.3,545.1,994.1,543.2,992.1z"/>
		<path class="st10" d="M580.5,1010.6c-2.1-1.7-5.3-1.4-7,0.7l-57.3,70.4c-1.7,2.1-1.4,5.3,0.7,7c0.9,0.8,2,1.1,3.2,1.1
			c1.5,0,2.9-0.6,3.9-1.8l57.3-70.4C583,1015.5,582.7,1012.3,580.5,1010.6z"/>
		<path class="st10" d="M611.3,1025.2c-2.3-1.5-5.4-0.8-6.9,1.6l-26.1,41.7c-1.5,2.3-0.8,5.4,1.6,6.9c0.8,0.5,1.7,0.8,2.6,0.8
			c1.7,0,3.3-0.8,4.2-2.4l26.1-41.7C614.4,1029.8,613.6,1026.7,611.3,1025.2z"/>
		<path class="st10" d="M1297,916.7l-211.6-55c-2.7-0.7-5.4,0.9-6.1,3.6c-0.7,2.7,0.9,5.4,3.6,6.1l211.6,55c0.4,0.1,0.8,0.2,1.3,0.2
			c2.2,0,4.2-1.5,4.8-3.7C1301.3,920.1,1299.7,917.4,1297,916.7z"/>
		<path class="st10" d="M1165.4,987.6l-117.7-69.3c-2.4-1.4-5.4-0.6-6.8,1.8c-1.4,2.4-0.6,5.4,1.8,6.8l117.7,69.3
			c0.8,0.5,1.7,0.7,2.5,0.7c1.7,0,3.4-0.9,4.3-2.5C1168.6,992.1,1167.8,989,1165.4,987.6z"/>
		<path class="st10" d="M1164.7,928.6l-96.9-38c-2.6-1-5.5,0.3-6.5,2.8c-1,2.6,0.3,5.5,2.8,6.5l96.9,38c0.6,0.2,1.2,0.3,1.8,0.3
			c2,0,3.9-1.2,4.7-3.2C1168.5,932.5,1167.2,929.6,1164.7,928.6z"/>
		<path class="st10" d="M1425.6,881.4l-319.7-53.7c-2.7-0.5-5.3,1.4-5.8,4.1c-0.5,2.7,1.4,5.3,4.1,5.8l319.7,53.7
			c0.3,0,0.6,0.1,0.8,0.1c2.4,0,4.5-1.7,4.9-4.2C1430.2,884.5,1428.3,881.9,1425.6,881.4z"/>
		<path class="st10" d="M994.9,970.9c-2.1-1.8-5.3-1.5-7,0.6c-1.8,2.1-1.5,5.3,0.6,7l89.1,75.8c0.9,0.8,2.1,1.2,3.2,1.2
			c1.4,0,2.8-0.6,3.8-1.8c1.8-2.1,1.5-5.3-0.6-7L994.9,970.9z"/>
		<path class="st10" d="M1087.3,987.7L1023,947c-2.3-1.5-5.4-0.8-6.9,1.6c-1.5,2.3-0.8,5.4,1.6,6.9l64.3,40.6
			c0.8,0.5,1.8,0.8,2.7,0.8c1.7,0,3.3-0.8,4.2-2.3C1090.4,992.3,1089.7,989.2,1087.3,987.7z"/>
		<path class="st10" d="M963.9,991.9c-2-1.9-5.2-1.8-7.1,0.2c-1.9,2-1.8,5.2,0.2,7.1l53.9,51.1c1,0.9,2.2,1.4,3.4,1.4
			c1.3,0,2.6-0.5,3.6-1.6c1.9-2,1.8-5.2-0.2-7.1L963.9,991.9z"/>
		<path class="st10" d="M926.5,1011.3c-1.7-2.1-4.9-2.5-7-0.7c-2.1,1.7-2.5,4.9-0.7,7l57.3,70.4c1,1.2,2.4,1.8,3.9,1.8
			c1.1,0,2.2-0.4,3.2-1.1c2.1-1.7,2.5-4.9,0.7-7L926.5,1011.3z"/>
		<path class="st10" d="M895.6,1026.8c-1.5-2.3-4.5-3.1-6.9-1.6c-2.3,1.5-3.1,4.5-1.6,6.9l26.1,41.7c0.9,1.5,2.6,2.4,4.2,2.4
			c0.9,0,1.8-0.2,2.6-0.8c2.3-1.5,3.1-4.5,1.6-6.9L895.6,1026.8z"/>
		<path class="st10" d="M830.1,1039.8c-18.5-2.6-45.7-4.2-78.6-4.6c0,0,0,0-0.1,0c-0.6,0-1.1,0.1-1.6,0.3c-0.5-0.2-1.1-0.3-1.6-0.3
			c0,0,0,0-0.1,0c-32.9,0.5-60.1,2.1-78.6,4.6c-17.3,2.4-28.2,5.3-28.8,12.2c-0.7,7.4,9.9,9.4,14.4,10.3c0.3,0.1,0.7,0.1,1,0.1
			c2.3,0,4.4-1.7,4.9-4c0.5-2.7-1.2-5.3-3.9-5.9c-0.3-0.1-0.6-0.1-0.9-0.2c11.3-2.9,38.5-6.4,92.2-7.2c0.5,0,1.1-0.1,1.6-0.3
			c0.5,0.2,1,0.3,1.6,0.3c53.7,0.8,80.9,4.3,92.2,7.2c-0.3,0.1-0.6,0.1-0.9,0.2c-2.7,0.5-4.5,3.2-3.9,5.9c0.5,2.4,2.6,4,4.9,4
			c0.3,0,0.6,0,1-0.1c4.5-0.9,15.1-3,14.4-10.3C858.5,1046.8,853.5,1043,830.1,1039.8z"/>
		<path class="st10" d="M760.5,1106.5c-2.1,1.8-2.4,4.9-0.7,7c4.7,5.7,9.6,13.8,6.7,20.1c-2.8,5.9-11.6,8.7-16.7,8.7c0,0,0,0,0,0
			c-5.1,0-13.9-2.8-16.7-8.7c-3-6.2,2-14.4,6.7-20.1c1.8-2.1,1.4-5.3-0.7-7c-2.1-1.8-5.3-1.4-7,0.7c-6.5,7.9-13.2,19.7-8,30.7
			c2.2,4.7,6.4,8.5,12,11.2c4.4,2,9.4,3.2,13.7,3.2c0,0,0,0,0,0c4.3,0,9.3-1.2,13.7-3.2c5.6-2.6,9.8-6.5,12-11.2
			c5.2-11-1.5-22.7-8-30.7C765.8,1105,762.6,1104.7,760.5,1106.5z"/>
		<path class="st10" d="M796.1,441.2c0.2,0,0.4,0,0.6,0c2.5,0,4.7-1.9,5-4.4c1-8.7-1.1-16.2-6-21.2c-1.9-2-5.1-2-7.1-0.1
			c-2,1.9-2,5.1-0.1,7.1c3.5,3.6,3.7,9.1,3.2,13.1C791.4,438.4,793.4,440.9,796.1,441.2z"/>
		<path class="st10" d="M696.2,436.2c0,2.8,2.2,5,5,5s5-2.2,5-5c0-20.2,14.4-37.8,34.1-41.9c2.7-0.6,4.5-3.2,3.9-5.9
			c-0.6-2.7-3.2-4.5-5.9-3.9C713.9,389.6,696.2,411.3,696.2,436.2z"/>
		<path class="st10" d="M705.7,328.5c-8.5-0.5-16,3.5-21.2,11.3c-9.3,14-9.9,38-1.2,55.9c0.9,1.8,2.6,2.8,4.5,2.8
			c0.7,0,1.5-0.2,2.2-0.5c2.5-1.2,3.5-4.2,2.3-6.7c-7.1-14.7-6.9-35,0.5-46c3.2-4.8,7.4-7.2,12.3-6.9c2.8,0.1,5.1-2,5.3-4.7
			C710.5,331,708.4,328.6,705.7,328.5z"/>
		<path class="st10" d="M741,350.5c-2.6,0.9-4,3.7-3.1,6.3c0.7,2.1,2.7,3.4,4.7,3.4c0.5,0,1.1-0.1,1.6-0.3
			c13-4.5,20.5-14.9,19.6-27.1c-1-13.4-12.8-28.7-36.6-32.9c-2.7-0.5-5.3,1.3-5.8,4.1c-0.5,2.7,1.3,5.3,4.1,5.8
			c18.6,3.3,27.7,14.3,28.4,23.8C754.4,341.2,749.6,347.5,741,350.5z"/>
		<path class="st10" d="M525.2,561c0.1,0,0.1,0,0.2,0c2.8-0.1,4.9-2.4,4.8-5.2c-1.8-54.9-1.2-96.7,21.8-174.1
			c15.8-53.1,41.9-97.8,77.6-132.8c32.6-32,64.9-47.6,81.3-54c23.5-9.2,72.7-15.7,104.9,6.3c20.3,13.8,30.6,36.7,30.6,67.9
			c0,43.9-17.6,74.9-32.3,93.2c-18.2,22.6-43.1,39.3-68.3,45.8c-2.7,0.7-4.3,3.4-3.6,6.1c0.7,2.7,3.4,4.3,6.1,3.6
			c27.2-7,54-24.9,73.6-49.2c22.6-28,34.5-62.4,34.5-99.5c0-34.7-11.8-60.3-35-76.1c-35.6-24.3-87.8-17.7-114.2-7.3
			c-17.1,6.7-50.8,22.9-84.6,56.2c-36.9,36.3-63.9,82.4-80.1,137.1c-23.4,78.9-24,121.4-22.2,177.2C520.3,558.9,522.5,561,525.2,561
			z"/>
		<path class="st10" d="M601.6,335.5c1.2-2.5,0.1-5.5-2.5-6.6c-2.5-1.2-5.5-0.1-6.6,2.5c-6.9,15-12.9,31-17.8,47.6
			c-23.4,78.9-24,121.4-22.2,177.2c0.1,2.7,2.3,4.8,5,4.8c0.1,0,0.1,0,0.2,0c2.8-0.1,4.9-2.4,4.8-5.2c-1.8-54.9-1.2-96.7,21.8-174.1
			C589.1,365.7,594.9,350.1,601.6,335.5z"/>
		<path class="st10" d="M784.7,157c33,2.5,89,19.2,92.2,103.9c1,26.8-4,53.5-15.4,81.7c-1,2.6,0.2,5.5,2.8,6.5
			c0.6,0.3,1.3,0.4,1.9,0.4c2,0,3.8-1.2,4.6-3.1c12-29.5,17.3-57.5,16.2-85.8c-1.5-37.9-13.2-67.1-34.9-86.8
			c-21.5-19.6-48.1-25.3-66.6-26.7c-2.8-0.2-5.2,1.9-5.4,4.6C779.9,154.4,782,156.8,784.7,157z"/>
	</g>
</g>
</svg>
