<svg xmlns="http://www.w3.org/2000/svg" viewBox="0 0 1080.3 1080.3">
  <defs>
    <style>
      .a {
        fill: #1b1f1e;
      }

      .b {
        fill: #fff;
      }
      @media (prefers-color-scheme: dark) {
	      .a {
	        fill: transparent;
	      }
	      .b {
	        fill: #fff;
	      }
    }
    </style>
  </defs>
  <g>
    <rect class="a" width="1080.3" height="1080.3" rx="100"/>
    <g>
      <path class="b" d="M316.5,698.7c0-.2-.1-.3-.1-.4-3.6-18.8-12.1-33.1-34.8-28.2-7.6,1.6-15.1,3.4-22.7,5.2l3,11.8,22.2,92.4,2.7,11.9,16.2-3.7c-1-4-1.9-7.9-2.9-11.9-2.7-12.2-5.4-24.4-8.2-36.7l4.7-1C317.8,733.5,320.1,717.4,316.5,698.7Zm-25,25.6-2.8.7c-2.9-13.2-5.9-26.5-8.9-39.7l2.9-.6c9.7-2.1,13.5,6.2,15.8,17.3a.4.4,0,0,1,.1.3C300.9,713.2,300.8,722.3,291.5,724.3Z"/>
      <path class="b" d="M373.8,694.3c-3.2-22.3-7.3-29.7-13.5-34.5-4.5-3.3-10.6-4.7-18.2-3.5s-12.9,4.6-16.1,9.3c-4.3,6.5-5.7,14.8-1.5,37,2.3,12.6,4.7,25.2,7.1,37.9,4.2,22.1,8.4,29.3,14.2,34s9.8,4.7,16.7,3.6,11.6-4.3,14.5-8.8c4-6.3,5.6-14.5,2.3-36.8C377.5,719.8,375.6,707,373.8,694.3Zm-13.9,68.5c-6.6,1.1-8.1-6.8-10.8-21.9l-7.8-45c-2.6-15.1-3.8-23.1,3.3-24.3s8.6,6.8,11.1,21.9l7.2,45.1C365.4,753.7,366.5,761.7,359.9,762.8Z"/>
      <path class="b" d="M406.9,718.4l5.3-.6q7.9,24.6,15.3,49.4l17.3-1.7q-8.2-27.6-17.2-54.9c7.2-7,8.9-17.5,7.8-29.3V681c-1.7-18.8-8.7-33.9-31.6-31.4l-23,2.9,1.8,12.1,12.6,94.2,1.5,12.1,16.4-2.1c-.5-4-1.1-8.1-1.6-12.1C410,743.9,408.5,731.2,406.9,718.4Zm-6.4-53.7,2.9-.4c9.8-1.1,12.8,7.5,13.9,18.5a.4.4,0,0,0,.1.3c1.1,11,.4,19.7-10,20.9l-2.2.3C403.7,691.1,402.1,677.9,400.5,664.7Z"/>
      <path class="b" d="M491.7,757.9c4.7-5.9,7.4-14.4,6.5-36.6v-.5c-5.7.3-11.4.5-17.1.9.1,1.2.1,2.5.2,3.8.9,15.3.8,23.7-5.8,24.1s-7.4-7.7-8.4-22.9-2.1-30.3-3.1-45.5-1.4-23.4,5.8-23.8,7.8,7.7,8.7,22.9a7.6,7.6,0,0,0,.1,1.5l17.7-.8v-.5c-.9-20.7-4.3-28-9.8-33.2s-10-5.9-17.6-5.4-13.3,3.2-16.9,7.5c-5,6.1-7.3,14.1-5.4,36.6,1,12.8,2.1,25.7,3.1,38.5,1.9,22.5,5.3,30,10.6,35.3s9.2,5.7,16.1,5.3S488.4,762.1,491.7,757.9Z"/>
      <path class="b" d="M556.1,761.1V748.9c.4-31.7.7-63.4,1.1-95l.3-12.2H539.2c.1,4.1.1,8.1.2,12.2v37.4l-14.8.2-.6-37.5V641.8c-6.1,0-12.2.2-18.3.4.1,4,.3,8.1.5,12.2q1.5,47.4,2.9,95l.3,12.2,16.5-.4c-.2-4.1-.3-8.1-.4-12.2-.2-14.2-.5-28.4-.7-42.6h14.7c0,14.2.1,28.3.1,42.5,0,4.1,0,8.2-.1,12.2Z"/>
      <path class="b" d="M607.8,748.4c-7.2-.5-14.5-.8-21.8-1.1q1.8-46.3,3.5-92.6c.2-4.1.5-8.2.7-12.2l-18.3-.6c-.1,4.1-.1,8.2-.1,12.2q-1.2,47.5-2.2,95c-.2,4.1-.3,8.2-.5,12.2,12.6.3,25.3.8,37.9,1.6C607.3,758,607.6,753.2,607.8,748.4Z"/>
      <path class="b" d="M640.4,645.4l-18.3-1.3-.6,12.2q-3.2,47.4-6.1,94.9c-.4,4-.7,8.1-1,12.1l16.5,1.2c.3-4,.5-8.1.8-12.2l7.5-94.7Z"/>
      <path class="b" d="M679.6,759.4h.4c.7,3.5,1.5,6.9,2.2,10.4l7.6,1q4.1-30.4,8.2-60.9c-8.3-1.1-16.6-2.2-24.8-3.1-.6,5-1.1,10-1.7,15l8,.9c-.2,2-.4,4-.7,6-2,16.7-3.9,26.6-11.5,25.7s-6.1-9.1-4.5-24l4.8-45.4c1.6-15.1,2.6-23.2,9.8-22.4s6.4,9,4.6,24a7.7,7.7,0,0,1-.2,1.5l17.7,2.3v-.5c2.8-20.6.6-28.3-3.9-34.4-3.3-4.5-8.8-7.5-16.5-8.4s-13.6.9-17.9,4.5c-6,5.2-9.6,12.7-11.6,35.2-1.2,12.8-2.3,25.6-3.5,38.4-2,22.5-.1,30.5,4.4,36.7a19.1,19.1,0,0,0,13.3,7.4C670.5,770,675.4,766.9,679.6,759.4Z"/>
      <path class="b" d="M749.4,768.1q8.9-46.8,17.6-93.4c.9-4,1.7-8,2.5-12l-18.1-3.3c-.6,4-1.3,8.1-1.9,12.1-2.1,12.3-4.3,24.6-6.4,36.9l-14.7-2.5c2-12.3,3.9-24.6,5.9-36.9l2.1-12.1-18.1-2.7c-.6,4-1.1,8-1.6,12.1-4.5,31.3-9.1,62.7-13.6,94-.7,4.1-1.3,8.1-1.9,12.1l16.3,2.5,1.8-12.1c2.2-14,4.5-28,6.7-42.1l14.6,2.5c-2.5,14-4.9,27.9-7.3,41.9-.8,4-1.5,8-2.3,12l16.4,3C748.1,776.1,748.7,772.1,749.4,768.1Z"/>
      <path class="b" d="M788.2,776.1l20.4-90.5,16.3,3.8c1.1-4.7,2.2-9.4,3.4-14.1-16.9-4.1-33.8-7.7-50.7-11-.9,4.7-1.9,9.5-2.8,14.2l16.4,3.3c-6.4,30.3-12.7,60.5-19.1,90.8l-2.7,11.9,16.3,3.5C786.5,784,787.3,780.1,788.2,776.1Z"/>
      <path class="b" d="M353.7,852.3l6.3-1c-3.5-12-7.1-24-10.7-35.9q-4.5.6-9,1.5c.4,12.4,1,24.9,1.6,37.4l6.2-1.1-.6-7.5,4.3-.7C352.5,847.4,353.1,849.9,353.7,852.3Zm-6.6-12.5-.6-9.9c-.2-1.8-.4-4.6-.4-5.9a.1.1,0,0,1,.1-.1l1.5,5.8c.9,3.2,1.7,6.4,2.6,9.6Z"/>
      <path class="b" d="M384.5,821.5h0c-.8-6-3.3-10.8-10.7-9.8l-7.5,1.1.6,3.8c1.5,9.7,2.9,19.5,4.4,29.2.1,1.3.3,2.5.5,3.8l6.5-.9-.6-3.8c-.5-3.8-1.1-7.5-1.6-11.3h.9c1.6,4.9,3.2,9.8,4.7,14.7l6.8-.9c-2-5.6-3.9-11.1-5.8-16.6C384.6,828.4,385,825.1,384.5,821.5Zm-8.7,6.5h-.5l-1.5-10.8h.5c2.4-.3,3.3,2,3.7,5h0C378.4,825.3,378.2,827.7,375.8,828Z"/>
      <path class="b" d="M409.8,807.1,394,809c.3,1.9.5,3.8.7,5.6l4.6-.5,3.3,27.5c.1,1.2.3,2.5.4,3.7l6.5-.7c-.2-1.3-.3-2.5-.5-3.8-1-9.1-2.1-18.3-3.1-27.5l4.5-.5Z"/>
      <path class="b" d="M432.9,840l5.6-.5-.9-10.7,7.8-.6c-.2-1.8-.3-3.6-.5-5.4l-7.8.7-.9-10.8-5.8.5c.3,3.6.6,7.2,1,10.8l-7.9.7c.2,1.8.4,3.6.5,5.4l7.9-.7C432.2,832.9,432.5,836.4,432.9,840Z"/>
      <path class="b" d="M468.7,835.6c.1,1.3.2,2.5.2,3.8l6.6-.4-.3-3.8c-.5-9.8-1.1-19.7-1.6-29.5-.1-1.3-.1-2.6-.2-3.8l-6.8.4.3,3.8c.3,3.6.5,7.3.7,11l-3.6.2c-.2-3.7-.5-7.3-.7-11-.1-1.3-.1-2.5-.2-3.8l-6.8.5.3,3.7,2.1,29.6c.1,1.2.1,2.5.2,3.7l6.6-.4-.3-3.8c-.3-4.2-.6-8.4-.8-12.5l3.6-.3C468.2,827.2,468.5,831.4,468.7,835.6Z"/>
      <path class="b" d="M488,825c.3,7.3,1.4,9.8,3.1,11.7a7.4,7.4,0,0,0,5.8,1.9,7.2,7.2,0,0,0,5.7-2.3c1.5-2,2.4-4.6,2.2-12l-.3-10.3c-.2-7.3-1.3-9.9-3-11.8a7.9,7.9,0,0,0-6-2c-2.6.1-4.7,1-5.8,2.5s-2.5,4.6-2.2,11.9C487.7,818.1,487.8,821.5,488,825Zm7.7-18.7c1.5-.1,1.9,1.5,2,6s.3,9.4.5,14.1,0,6.2-1.5,6.2-1.8-1.5-2-6-.3-9.4-.5-14.1S494.2,806.3,495.7,806.3Z"/>
      <path class="b" d="M525.5,831.9c-1.6,0-2.3-2-2.7-5.5l-5.9.4c.3,7.4,3.6,11.2,8.7,11.2s8.5-3.6,8.5-9.8a14.9,14.9,0,0,0-4.7-10.7l-2.8-3c-2.1-2.1-3.1-3.8-3.1-5.8s.7-3.1,1.8-3.1,2.1,1.8,2.3,4.6l6.1-.3c-.4-6.8-3.3-10.4-8.3-10.4s-8.5,3.7-8.4,10.1a14.7,14.7,0,0,0,4.4,10.1l2.8,2.9c2.1,2,3.2,3.8,3.3,6.2S526.7,831.9,525.5,831.9Z"/>
      <path class="b" d="M553.9,822.7c7.2.1,9-4.8,9.2-11h0c.1-6.3-1.7-11.3-9.2-11.4h-7.4v3.8c-.1,9.9-.1,19.7-.2,29.6,0,1.3,0,2.5-.1,3.8h6.6v-3.8c.1-3.6.1-7.2.1-10.8Zm-.7-16.9h.5c2.4,0,2.9,2.5,2.9,5.6v.2c-.1,3-.7,5.5-3.1,5.5H553C553.1,813.3,553.1,809.5,553.2,805.8Z"/>
      <path class="b" d="M574.8,834c-.1,1.3-.1,2.6-.2,3.8l6.6.2c0-1.2,0-2.5.1-3.8.3-9.8.7-19.7,1.1-29.5,0-1.3.1-2.5.1-3.8l-6.7-.2c-.1,1.2-.1,2.5-.1,3.8Z"/>
      <path class="b" d="M597.9,838.8l6.5.3c.1-1.2.1-2.5.2-3.8l1.5-27.6,4.6.3c.1-1.9.2-3.8.4-5.7l-15.9-.9-.3,5.7,4.7.3L598.1,835C598,836.3,598,837.5,597.9,838.8Z"/>
      <path class="b" d="M618.1,840l6.3.5,1.2-7.5,4.3.3c.1,2.5.1,5.1.2,7.6l6.3.5L634.6,804l-9.1-.7C623,815.5,620.5,827.7,618.1,840Zm10.2-22.6c.3-1.8.8-4.5,1.1-5.9h.1c.1,2,.1,4,.1,6s.1,6.6.2,9.9l-3.2-.2C627.2,823.9,627.8,820.7,628.3,817.4Z"/>
      <path class="b" d="M658.1,809.9c.1-1.2.2-2.5.4-3.8l-6.8-.6-.3,3.8c-.9,9.8-1.9,19.6-2.8,29.4-.1,1.3-.3,2.5-.4,3.8l12.3,1.2.6-5.7-5.8-.6C656.2,828.3,657.1,819.1,658.1,809.9Z"/>
      <path class="b" d="M676.6,812c-1.1,9.8-2.3,19.5-3.4,29.3-.2,1.3-.4,2.6-.5,3.8l6.5.8c.2-1.3.3-2.5.4-3.8,1.2-9.8,2.4-19.6,3.7-29.3.1-1.3.3-2.5.5-3.8l-6.8-.8C676.9,809.4,676.8,810.7,676.6,812Z"/>
      <path class="b" d="M695.8,848.1l6.5.9c.2-1.3.3-2.5.5-3.8l3.9-27.4,4.6.7c.2-1.9.5-3.8.8-5.7l-15.7-2.2c-.3,1.9-.5,3.8-.8,5.7l4.6.6c-1.3,9.2-2.5,18.3-3.8,27.4Z"/>
      <path class="b" d="M723.3,852.2l6.5,1.1.6-3.7c.6-3.7,1.3-7.3,1.9-11,3.2-7,6.5-13.9,9.8-20.9l-6.4-1.1-5.1,12.8h-.2l-.6-13.8-6.6-1.1c.9,7.7,1.8,15.4,2.6,23.1L724,848.5C723.8,849.7,723.5,851,723.3,852.2Z"/>
      <path class="b" d="M539.5,351.5h1.3c46.3,1.7,83.6,11.7,95.1,25.4,2.9,3.6,4,7.1,3.3,11.3a10,10,0,0,0,8.5,11.4h1.4a10,10,0,0,0,9.9-8.6,32.9,32.9,0,0,0-7.8-26.9c-9-10.9-25.7-19.3-49.5-25s-47.8-7.3-60.1-7.7h-2.8c-12.4.4-36.7,2-60.1,7.6s-40.6,14.2-49.6,25a33.6,33.6,0,0,0-7.8,27,10,10,0,0,0,9.9,8.6h1.5a10.1,10.1,0,0,0,8.4-11.4,13.4,13.4,0,0,1,3.4-11.3C455.9,363.1,493.2,353.2,539.5,351.5Z"/>
      <path class="b" d="M140.4,694.1h1.8a10.1,10.1,0,0,0,8-11.7c-5.5-29.6,10.7-101,61-131.9,64.7-39.8,135.7-69.5,230.3-96.4l7.7-2.2-.4-8c-.2-3.2-.3-5.5-.4-7s-.2-1.5-.2-1.9a10.1,10.1,0,0,0-10.4-9.2c-1,0-9.6.6-9.7,11.2v.2c-92.5,26.8-162.9,56.6-227.4,96.3-33.1,20.3-50.7,52.8-59.6,76.5-10.2,26.9-14.3,56-10.6,76A10,10,0,0,0,140.4,694.1Z"/>
      <path class="b" d="M482.8,447.4a10,10,0,0,0,10-10V385.2a10,10,0,0,0-20,0v52.2A10,10,0,0,0,482.8,447.4Z"/>
      <path class="b" d="M501.5,377.2v57.3a10,10,0,0,0,20,0V377.2a10,10,0,0,0-20,0Z"/>
      <path class="b" d="M530.2,374.2v59.7a10,10,0,0,0,20,0V374.2a10,10,0,0,0-20,0Z"/>
      <path class="b" d="M578.8,958.3a198.7,198.7,0,0,0-38.2-3.6,195,195,0,0,0-37.5,3.6,10,10,0,0,0,4.2,19.6,167.3,167.3,0,0,1,33.3-3.2,176.6,176.6,0,0,1,34,3.2l2.1.2a10,10,0,0,0,2.1-19.8Z"/>
      <path class="b" d="M908.2,672.1a10,10,0,0,0,8.6-4.8,9.9,9.9,0,0,0-3.3-13.7c-23-14.1-64.8-34.2-133.7-50.1s-149.7-23.9-239.6-23.9h0c-228,0-337,51.7-373.4,74a9.9,9.9,0,0,0-3.3,13.7,10,10,0,0,0,8.6,4.8,10.3,10.3,0,0,0,5.2-1.5c34.9-21.3,140-71,362.8-71h.1c222.8,0,328,49.7,362.8,71A10.3,10.3,0,0,0,908.2,672.1Z"/>
      <path class="b" d="M277.6,535.1a10,10,0,0,0,9.6,7.2,8.6,8.6,0,0,0,2.8-.4c80.4-22.9,162.3-34,250.1-34h0c87.9,0,169.8,11.1,250.2,34a8.6,8.6,0,0,0,2.8.4,10,10,0,0,0,2.7-19.6c-82.3-23.4-165.9-34.8-255.6-34.8h0c-89.8,0-173.4,11.4-255.7,34.8A10.1,10.1,0,0,0,277.6,535.1Z"/>
      <path class="b" d="M652.2,436.9c-.1-10.6-8.7-11.2-9.7-11.2a10,10,0,0,0-10.4,9.2c0,.4-.1,1-.2,1.9s-.2,3.8-.4,7l-.4,8,7.7,2.2c94.6,26.9,165.6,56.6,230.3,96.4,50.3,30.9,66.5,102.3,61,131.9a10.1,10.1,0,0,0,8,11.7H940a9.9,9.9,0,0,0,9.8-8.2c3.7-20-.4-49.1-10.6-76-8.9-23.7-26.5-56.2-59.6-76.5-64.5-39.7-134.9-69.5-227.4-96.3Z"/>
      <path class="b" d="M587.5,385.2v52.2a10,10,0,1,0,20,0V385.2a10,10,0,0,0-20,0Z"/>
      <path class="b" d="M558.8,377.2v57.3a10,10,0,0,0,20,0V377.2a10,10,0,0,0-20,0Z"/>
      <path class="b" d="M215.6,753a10,10,0,0,0-12.2-7.2l-211.5,55A10,10,0,0,0-15.3,813a10,10,0,0,0,9.7,7.5,7.3,7.3,0,0,0,2.5-.4l211.5-54.9A10,10,0,0,0,215.6,753Z"/>
      <path class="b" d="M253.6,806.4a9.9,9.9,0,0,0-13.6-3.5L122.2,872.2a10.1,10.1,0,0,0-3.5,13.7,9.9,9.9,0,0,0,8.6,4.9,10.5,10.5,0,0,0,5.1-1.3l117.7-69.4A10,10,0,0,0,253.6,806.4Z"/>
      <path class="b" d="M127.3,832.2a9.7,9.7,0,0,0,3.7-.7l96.8-38a10,10,0,1,0-7.3-18.7l-96.9,38.1a10,10,0,0,0,3.7,19.3Z"/>
      <path class="b" d="M194.9,719.9a10,10,0,0,0-11.5-8.2l-319.7,53.7a10,10,0,0,0-8.2,11.5,10.1,10.1,0,0,0,9.9,8.4l1.6-.2,319.7-53.6A9.9,9.9,0,0,0,194.9,719.9Z"/>
      <path class="b" d="M306.1,857.2A10.1,10.1,0,0,0,292,856l-89.1,75.9a10,10,0,0,0,13,15.2l89-75.8A10,10,0,0,0,306.1,857.2Z"/>
      <path class="b" d="M210.8,889.3l64.3-40.7a9.9,9.9,0,0,0,3.1-13.8,10.1,10.1,0,0,0-13.8-3.1l-64.2,40.7a9.9,9.9,0,0,0,5.3,18.4A10.1,10.1,0,0,0,210.8,889.3Z"/>
      <path class="b" d="M337,877.6a10,10,0,0,0-14.1-.4L269,928.3a10.1,10.1,0,0,0-.4,14.2,10.3,10.3,0,0,0,7.3,3.1,9.6,9.6,0,0,0,6.8-2.8l53.9-51A10.1,10.1,0,0,0,337,877.6Z"/>
      <path class="b" d="M373.8,895.6a10,10,0,0,0-14,1.5l-57.4,70.4a10,10,0,1,0,15.5,12.6l57.4-70.4A10,10,0,0,0,373.8,895.6Z"/>
      <path class="b" d="M404.1,909.9a10,10,0,0,0-13.8,3.2l-26,41.7a10,10,0,0,0,3.1,13.8,10.4,10.4,0,0,0,5.3,1.5,10,10,0,0,0,8.5-4.7l26.1-41.7A10,10,0,0,0,404.1,909.9Z"/>
      <path class="b" d="M1088.4,800.8l-211.5-55a10,10,0,1,0-5,19.4l211.5,54.9a7.7,7.7,0,0,0,2.5.4,10,10,0,0,0,2.5-19.7Z"/>
      <path class="b" d="M958.1,872.2,840.4,802.9a10,10,0,1,0-10.2,17.2l117.7,69.4a10.5,10.5,0,0,0,5.1,1.3,9.8,9.8,0,0,0,8.6-4.9A10.1,10.1,0,0,0,958.1,872.2Z"/>
      <path class="b" d="M956.7,812.9l-96.9-38.1a10,10,0,0,0-7.3,18.7l96.8,38a9.7,9.7,0,0,0,3.7.7,10,10,0,0,0,3.7-19.3Z"/>
      <path class="b" d="M1216.6,765.4,896.9,711.7a10,10,0,0,0-3.3,19.8l319.7,53.6,1.6.2a10,10,0,0,0,1.7-19.9Z"/>
      <path class="b" d="M877.4,931.9,788.3,856a10,10,0,0,0-12.9,15.3l89,75.8a10,10,0,0,0,13-15.2Z"/>
      <path class="b" d="M880.2,872.4l-64.3-40.7a10.1,10.1,0,0,0-13.8,3.1,9.9,9.9,0,0,0,3.1,13.8l64.3,40.7a10,10,0,0,0,10.7-16.9Z"/>
      <path class="b" d="M757.5,877.2a10,10,0,1,0-13.8,14.6l53.9,51a9.6,9.6,0,0,0,6.8,2.8,10.3,10.3,0,0,0,7.3-3.1,10.1,10.1,0,0,0-.4-14.2Z"/>
      <path class="b" d="M720.5,897.1A10,10,0,1,0,705,909.7l57.4,70.4a9.9,9.9,0,0,0,7.7,3.7,10.1,10.1,0,0,0,7.8-16.4Z"/>
      <path class="b" d="M690,913.1a10,10,0,1,0-17,10.6l26.1,41.7a10,10,0,0,0,8.5,4.7,10.4,10.4,0,0,0,5.3-1.5,10,10,0,0,0,3.1-13.8Z"/>
      <path class="b" d="M621,923.7c-18.7-2.6-46.1-4.2-79.3-4.7h-.1l-1.6.2-1.7-.2h-.1c-33.1.5-60.5,2.1-79.3,4.7s-32.2,6.5-33.1,16.8c-1.1,11.8,13.6,14.7,18.5,15.7l1.9.2a10,10,0,0,0,9.8-8.1,8.6,8.6,0,0,0,0-3.9c12.8-2.2,37.2-4.7,82.5-5.4h2.9c45.3.7,69.7,3.2,82.5,5.4a12.7,12.7,0,0,0,0,3.9,10,10,0,0,0,9.8,8.1l2-.2c4.8-1,19.5-3.9,18.4-15.7C653.2,930.2,641.3,926.5,621,923.7Z"/>
      <path class="b" d="M547.5,991.5a10,10,0,0,0-1.4,14.1c5.1,6.3,7.4,11.8,6,14.8s-8.3,5.8-12.1,5.8h-.1c-3.8,0-10.4-2.3-12.1-5.8s.9-8.5,6.1-14.8a10,10,0,1,0-15.5-12.7c-13.5,16.4-12.1,28.7-8.7,36,6,12.7,21.4,17.3,30.3,17.3h0c8.9,0,24.2-4.6,30.2-17.3,3.5-7.3,4.8-19.6-8.7-36A10,10,0,0,0,547.5,991.5Z"/>
      <path class="b" d="M585.7,335.1h1.2a10,10,0,0,0,9.9-8.8c1.2-10.2-1.4-19.2-7.4-25.4a10,10,0,1,0-14.3,14c2.2,2.3,2.1,6.6,1.8,9A10.1,10.1,0,0,0,585.7,335.1Z"/>
      <path class="b" d="M481.4,325.2a10,10,0,0,0,20,0,37.8,37.8,0,0,1,30.1-37,10,10,0,0,0-4-19.6A57.9,57.9,0,0,0,481.4,325.2Z"/>
      <path class="b" d="M496.1,212.4c-10.3-.5-19.4,4.2-25.6,13.5-10.4,15.6-11.1,41.2-1.6,60.9a10,10,0,0,0,9,5.7,9.4,9.4,0,0,0,4.3-1,10,10,0,0,0,4.7-13.4c-7-14.6-5.4-32.7.2-41,2.9-4.5,5.9-4.8,7.9-4.7a10,10,0,0,0,1.1-20Z"/>
      <path class="b" d="M529.5,234.7a10,10,0,0,0,3.2,19.4,12.6,12.6,0,0,0,3.3-.5c15.3-5.3,24.1-17.6,22.9-32.3s-14.3-32.8-40.8-37.4a10,10,0,0,0-3.4,19.7c15.8,2.8,23.7,11.9,24.3,19.3C539.4,228.2,536,232.4,529.5,234.7Z"/>
      <path class="b" d="M315.4,454.9h.3a10.1,10.1,0,0,0,9.7-10.3c-1.8-54.4-1.2-95.8,21.5-172.5,15.6-52.2,41.2-96.2,76.3-130.7,32-31.4,63.6-46.6,79.6-52.9,22.6-8.8,69.7-15.1,100.3,5.8,18.8,12.8,28.4,34.2,28.4,63.7,0,42.4-17,72.4-31.2,90-17.6,21.8-41.5,37.9-65.6,44.1a10,10,0,0,0,5,19.4c28.2-7.3,56-25.8,76.2-50.9,23.3-28.9,35.6-64.4,35.6-102.6,0-25.1-6.4-59.3-37.1-80.3-37.3-25.3-91.5-18.6-118.9-7.8-17.4,6.8-51.8,23.4-86.3,57.3-37.5,36.8-64.9,83.7-81.4,139.2-23.7,79.6-24.2,122.5-22.4,178.8A9.9,9.9,0,0,0,315.4,454.9Z"/>
      <path class="b" d="M396.3,226.6a10,10,0,0,0-18.2-8.4,363,363,0,0,0-18,48.2c-23.6,79.6-24.2,122.5-22.4,178.8a9.9,9.9,0,0,0,10,9.7h.3a10.1,10.1,0,0,0,9.7-10.3c-1.8-54.4-1.2-95.8,21.6-172.5A336.5,336.5,0,0,1,396.3,226.6Z"/>
      <path class="b" d="M574.5,50.9c73.1,5.5,86.3,64.4,87.6,99.1,1,26.1-3.9,52.1-15.1,79.6a10,10,0,0,0,5.5,13,10.2,10.2,0,0,0,3.8.7,10.1,10.1,0,0,0,9.3-6.2c12.2-30.1,17.6-58.9,16.5-87.9-1.5-39.2-13.8-69.6-36.5-90.3S595.3,32.4,576,31a10,10,0,0,0-1.5,19.9Z"/>
    </g>
  </g>
</svg>
